<?xml version="1.0" encoding="UTF-8"?>
<svg width="1136px" height="1179px" viewBox="0 0 1136 1179" version="1.1" xmlns="http://www.w3.org/2000/svg" xmlns:xlink="http://www.w3.org/1999/xlink">
    <!-- Generator: Sketch 58 (84663) - https://sketch.com -->
    <title>a11y_check</title>
    <desc>Created with Sketch.</desc>
    <defs>
        <rect id="path-1" x="0" y="0" width="1136" height="1179"></rect>
    </defs>
    <g id="Page-1" stroke="none" stroke-width="1" fill="none" fill-rule="evenodd">
        <g id="a11y_check">
            <g id="Rectangle">
                <g id="path-1-Clipped">
                    <mask id="mask-2" fill="white">
                        <use xlink:href="#path-1"></use>
                    </mask>
                    <g id="path-1"></g>
                    <rect id="path-1" stroke="#979797" stroke-width="2" fill="#19A417" fill-rule="nonzero" mask="url(#mask-2)" x="0" y="0" width="1136" height="1179"></rect>
                </g>
            </g>
            <g id="universal-access-solid" transform="translate(145.000000, 167.000000)" fill="#FFFFFF" fill-rule="nonzero">
                <path d="M423,68.2258065 C619.069028,68.2258065 777.774194,226.90027 777.774194,423 C777.774194,619.069028 619.09973,777.774194 423,777.774194 C226.930972,777.774194 68.2258065,619.09973 68.2258065,423 C68.2258065,226.930972 226.90027,68.2258065 423,68.2258065 M423,0 C189.382899,0 0,189.382899 0,423 C0,656.617101 189.382899,846 423,846 C656.617101,846 846,656.617101 846,423 C846,189.382899 656.617101,0 423,0 Z M423,95.516129 C242.135093,95.516129 95.516129,242.135093 95.516129,423 C95.516129,603.864907 242.135093,750.483871 423,750.483871 C603.864907,750.483871 750.483871,603.864907 750.483871,423 C750.483871,242.135093 603.864907,95.516129 423,95.516129 Z M423,170.564516 C456.911637,170.564516 484.403226,198.056105 484.403226,231.967742 C484.403226,265.879379 456.911637,293.370968 423,293.370968 C389.088363,293.370968 361.596774,265.879379 361.596774,231.967742 C361.596774,198.056105 389.088363,170.564516 423,170.564516 Z M623.824367,337.756972 C574.851883,349.31954 529.142298,359.500536 483.722673,364.718105 C485.174177,537.027496 504.712343,574.601153 526.426911,630.15231 C532.59623,645.946585 524.794609,663.750109 509.000335,669.919427 C493.204355,676.088746 475.400831,668.287125 469.231512,652.492851 C454.383871,614.443319 440.088859,583.182254 431.262145,518.516129 L414.741266,518.516129 C405.928198,583.076504 391.657065,614.387032 376.770194,652.492851 C370.604286,668.278597 352.805879,676.092157 337.003077,669.919427 C321.208802,663.750109 313.407181,645.944879 319.5765,630.15231 C341.260367,574.648911 360.827528,537.124718 362.280738,364.718105 C316.861113,359.502242 271.151528,349.321246 222.177339,337.756972 C207.50879,334.292806 198.424524,319.595262 201.88869,304.925008 C205.352855,290.254754 220.048694,281.172194 234.720653,284.636359 C399.632661,323.574532 446.703351,323.496073 611.284464,284.636359 C625.951306,281.173899 640.652262,290.254754 644.116427,304.925008 C647.577181,319.595262 638.492915,334.294512 623.824367,337.756972 L623.824367,337.756972 Z" id="Shape"></path>
            </g>
        </g>
    </g>
</svg>